Coordinates
version=1
nRows=13
nColumns=36
inDegrees=yes

Units are S.I. units (second, meters, Newtons, ...)
Angles are in degrees.

endheader
time	pelvis_tilt	pelvis_list	pelvis_rotation	pelvis_tx	pelvis_ty	pelvis_tz	hip_flexion_r	hip_adduction_r	hip_rotation_r	knee_angle_r	ankle_angle_r	subtalar_angle_r	hip_flexion_l	hip_adduction_l	hip_rotation_l	knee_angle_l	ankle_angle_l	subtalar_angle_l	lumbar_extension	lumbar_bending	lumbar_rotation	arm_flex_r	arm_add_r	arm_rot_r	elbow_flex_r	pro_sup_r	wrist_flex_r	wrist_dev_r	arm_flex_l	arm_add_l	arm_rot_l	elbow_flex_l	pro_sup_l	wrist_flex_l	wrist_dev_l
      1.40000000	      1.36686400	     -1.13424550	     -0.43309729	      0.13736996	      0.89286424	      0.21829641	    -17.81893233	      4.14963266	     -4.40395396	    -20.59477317	     10.54495941	     10.71130249	     29.05275873	      1.92274750	      0.58947670	    -18.00393733	      2.90804832	      3.67603459	     -8.11789160	      2.78259877	      4.20599758	      4.14802864	    -23.31272621	     10.45914175	     41.69572504	     86.51662706	      0.00000000	      0.00000000	     -7.36107194	    -11.43679508	     33.09152387	      1.33880265	     86.51662706	      0.00000000	      0.00000000
      1.41000000	      1.21361735	     -0.73477509	     -0.41732910	      0.15387589	      0.89127163	      0.21748970	    -17.77306054	      3.50326780	     -4.64036478	    -22.16139749	      9.31168903	     11.17444111	     29.07652665	      2.66718931	      1.07230175	    -19.39240249	      1.40163081	      2.68545015	     -7.63437957	      2.26783002	      4.07589200	      3.57360728	    -23.07144643	     10.06262885	     41.62053145	     86.51662706	      0.00000000	      0.00000000	     -7.64003538	    -11.51587342	     33.42998323	      1.16722888	     86.51662706	      0.00000000	      0.00000000
      1.42000000	      1.05907057	     -0.25893057	     -0.33552926	      0.17038137	      0.88996615	      0.21660133	    -17.58039076	      2.80176999	     -4.91288854	    -23.89538860	      7.67151208	     11.56492503	     29.12897195	      3.46649310	      1.61331033	    -20.76800469	     -0.20563280	      1.41785931	     -7.13868948	      1.66978321	      3.85632330	      2.98572224	    -22.76972184	      9.64817757	     41.43795413	     86.51662706	      0.00000000	      0.00000000	     -7.87506172	    -11.62067686	     33.74148441	      1.04928790	     86.51662706	      0.00000000	      0.00000000
      1.43000000	      0.90366326	      0.29776138	     -0.19976251	      0.18671490	      0.88920346	      0.21567206	    -17.21014200	      2.03618801	     -5.20143979	    -25.82362984	      5.56691370	     11.83817624	     29.20686348	      4.30421392	      2.18050814	    -22.17090452	     -1.74825858	     -0.00777015	     -6.65654044	      0.98891307	      3.56430291	      2.40187572	    -22.40918699	      9.22450228	     41.14344613	     86.51662706	      0.00000000	      0.00000000	     -8.04501199	    -11.74928185	     34.01345618	      0.98790936	     86.51662706	      0.00000000	      0.00000000
      1.44000000	      0.74688971	      0.92510163	     -0.03178144	      0.20279106	      0.88900230	      0.21475769	    -16.63644333	      1.20230946	     -5.47806209	    -27.97149491	      2.98631668	     11.93559677	     29.28389087	      5.17541433	      2.74249724	    -23.62357395	     -3.05954795	     -1.46108191	     -6.20856756	      0.23250571	      3.22855944	      1.83452462	    -21.99531321	      8.80470535	     40.73566107	     86.51662706	      0.00000000	      0.00000000	     -8.13461409	    -11.90152468	     34.23243218	      0.98731444	     86.51662706	      0.00000000	      0.00000000
      1.45000000	      0.59591929	      1.60108827	      0.14113736	      0.21864937	      0.88917798	      0.21390905	    -15.84283311	      0.30680986	     -5.70759545	    -30.35865518	     -0.01809945	     11.78396830	     29.32808329	      6.08146485	      3.26649666	    -25.10347685	     -4.00009053	     -2.81247485	     -5.80852898	     -0.58528757	      2.88349233	      1.29200140	    -21.53750444	      8.40663697	     40.21623251	     86.51662706	      0.00000000	      0.00000000	     -8.13588240	    -12.07844951	     34.38460905	      1.05277578	     86.51662706	      0.00000000	      0.00000000
      1.46000000	      0.46038559	      2.30234339	      0.29232257	      0.23433742	      0.88952452	      0.21317789	    -14.82221816	     -0.63033644	     -5.85039765	    -32.99457681	     -3.32291973	     11.29898470	     29.30813826	      7.01856586	      3.71814955	    -26.54760259	     -4.47898057	     -3.94720812	     -5.46396969	     -1.44586462	      2.56112842	      0.78080294	    -21.04823639	      8.05259602	     39.58905845	     86.51662706	      0.00000000	      0.00000000	     -8.04729572	    -12.28101853	     34.45661161	      1.19020202	     86.51662706	      0.00000000	      0.00000000
      1.47000000	      0.34161064	      3.01302542	      0.40139548	      0.24979812	      0.88995023	      0.21261315	    -13.57463324	     -1.57860484	     -5.86774747	    -35.87504981	     -6.74057420	     10.39467353	     29.19242193	      7.96694994	      4.06312051	    -27.87781948	     -4.46494574	     -4.77805687	     -5.17777371	     -2.32885100	      2.28395725	      0.30816240	    -20.54165281	      7.76830087	     38.85933127	     86.51662706	      0.00000000	      0.00000000	     -7.87188648	    -12.50857006	     34.43641066	      1.40555058	     86.51662706	      0.00000000	      0.00000000
      1.48000000	      0.23188914	      3.72441306	      0.45682770	      0.26492255	      0.89045865	      0.21223510	    -12.10569773	     -2.50368757	     -5.72918625	    -38.97969211	    -10.04173594	      8.99909084	     28.95334635	      8.88798072	      4.26946107	    -29.02486235	     -3.98635969	     -5.25316392	     -4.94921771	     -3.21304552	      2.06126348	     -0.11615884	    -20.03220217	      7.58111857	     38.03266682	     86.51662706	      0.00000000	      0.00000000	     -7.61566158	    -12.75762017	     34.31431139	      1.70409727	     86.51662706	      0.00000000	      0.00000000
      1.49000000	      0.12303318	      4.42587237	      0.45418274	      0.27966405	      0.89106949	      0.21202990	    -10.42629995	     -3.37427602	     -5.41973357	    -42.26929043	    -12.98950501	      7.07443484	     28.57606344	      9.73165862	      4.30984613	    -29.94091554	     -3.12089561	     -5.35774248	     -4.77425667	     -4.07541755	      1.88994259	     -0.47950620	    -19.53372111	      7.51762370	     37.11467463	     86.51662706	      0.00000000	      0.00000000	     -7.28703542	    -13.02149087	     34.08392169	      2.08967063	     86.51662706	      0.00000000	      0.00000000
      1.50000000	      0.01217058	      5.09685026	      0.39148636	      0.29404481	      0.89180241	      0.21197666	     -8.55267086	     -4.16426788	     -4.94449531	    -45.68328372	    -15.37844799	      4.63710090	     28.06152224	     10.44959981	      4.16385346	    -30.60344397	     -1.97768731	     -5.11070767	     -4.64580275	     -4.88974592	      1.75864477	     -0.76758434	    -19.05899447	      7.60068777	     36.11115558	     86.51662706	      0.00000000	      0.00000000	     -6.89685411	    -13.29092541	     33.74299846	      2.56403454	     86.51662706	      0.00000000	      0.00000000
      1.51000000	     -0.09945093	      5.70848197	      0.26496255	      0.30809272	      0.89268687	      0.21206634	     -6.50660815	     -4.84958476	     -4.32872845	    -49.13993464	    -17.06982296	      1.77128091	     27.42199518	     11.00567581	      3.82120666	    -31.01371324	     -0.67647505	     -4.55837006	     -4.55488778	     -5.62688532	      1.65286028	     -0.96709194	    -18.61951536	      7.84642808	     35.02888715	     86.51662706	      0.00000000	      0.00000000	     -6.45811770	    -13.55546195	     33.29404991	      3.12660055	     86.51662706	      0.00000000	      0.00000000
      1.52000000	     -0.21016683	      6.23235718	      0.06837162	      0.32181482	      0.89374313	      0.21229421	     -4.31606065	     -5.40454023	     -3.61252682	    -52.54173346	    -18.01404728	     -1.37017709	     26.67458171	     11.38106199	      3.28609286	    -31.19133363	      0.67150393	     -3.76683484	     -4.49263861	     -6.25755416	      1.55892902	     -1.06912778	    -18.22512284	      8.26142959	     33.87675820	     86.51662706	      0.00000000	      0.00000000	     -5.98492497	    -13.80515278	     32.74456867	      3.77456034	     86.51662706	      0.00000000	      0.00000000
